# xmcd
# Copyright (C) 1995-1998 Ti Kan
#
# Track frame offsets:
#       150
#       17916
#       31415
#       46053
#       62760
#       85773
#       105943
#       129906
#       150221
#       169927
#       196371
#       215646
#       232607
#       256218
#       277591
#       307436
#
# Disc length: 4588 seconds
#
# Revision: 1
# Processed by: cddbd v1.5.2PL0 Copyright (c) Steve Scherf et al.
# Submitted via: CD-Transfer v1.0
#
DISCID=c411ea10
DTITLE=Talk Talk - 
DYEAR=1900
DGENRE=
TTITLE0=It's My Life
TTITLE1=Talk Talk
TTITLE2=Today
TTITLE3=Dum Dum Girl
TTITLE4=Have You Herd The News
TTITLE5=Such A Shame
TTITLE6=For What It's Vorth
TTITLE7=Life's What You Make It
TTITLE8=Eden
TTITLE9=April 5th
TTITLE10=Living In Another World
TTITLE11=I Believe In You
TTITLE12=Give It Up
TTITLE13=Ohn Cope
TTITLE14=Wealth
TTITLE15=Time It's Time
EXTD=
EXTT0=
EXTT1=
EXTT2=
EXTT3=
EXTT4=
EXTT5=
EXTT6=
EXTT7=
EXTT8=
EXTT9=
EXTT10=
EXTT11=
EXTT12=
EXTT13=
EXTT14=
EXTT15=
PLAYORDER=
